<?xml version="1.0" encoding="utf-8"?>
<!-- Generator: Adobe Illustrator 16.0.0, SVG Export Plug-In . SVG Version: 6.00 Build 0)  -->
<!DOCTYPE svg PUBLIC "-//W3C//DTD SVG 1.1//EN" "http://www.w3.org/Graphics/SVG/1.1/DTD/svg11.dtd">
<svg version="1.1" id="Layer_1" xmlns="http://www.w3.org/2000/svg" xmlns:xlink="http://www.w3.org/1999/xlink" x="0px" y="0px"
	 width="850.39px" height="850.39px" viewBox="0 0 850.39 850.39" enable-background="new 0 0 850.39 850.39" xml:space="preserve">
<g>
	<polygon fill="#FCFAE1" stroke="#373636" stroke-width="4" stroke-linejoin="bevel" stroke-miterlimit="10" points="
		357.611,419.554 350.174,419.554 425.654,331.148 501.133,419.554 493.696,419.554 493.696,470.24 485.517,470.24 485.517,521.331 
		365.791,521.331 365.791,470.24 357.611,470.24 	"/>
	
		<line fill="none" stroke="#373636" stroke-width="4" stroke-linejoin="bevel" stroke-miterlimit="10" x1="365.791" y1="470.24" x2="485.517" y2="470.24"/>
	
		<line fill="none" stroke="#373636" stroke-width="4" stroke-linejoin="bevel" stroke-miterlimit="10" x1="493.696" y1="419.588" x2="357.611" y2="419.588"/>
	<g>
		
			<rect x="363.186" y="423.094" fill="#BFD1E2" stroke="#373636" stroke-width="4" stroke-linejoin="bevel" stroke-miterlimit="10" width="14.719" height="21.777"/>
		
			<line fill="none" stroke="#373636" stroke-width="2" stroke-linejoin="bevel" stroke-miterlimit="10" x1="370.546" y1="423.094" x2="370.546" y2="444.871"/>
	</g>
	<g>
		
			<rect x="377.905" y="423.094" fill="#BFD1E2" stroke="#373636" stroke-width="4" stroke-linejoin="bevel" stroke-miterlimit="10" width="14.719" height="21.777"/>
		
			<line fill="none" stroke="#373636" stroke-width="2" stroke-linejoin="bevel" stroke-miterlimit="10" x1="385.265" y1="423.094" x2="385.265" y2="444.871"/>
	</g>
	<g>
		
			<rect x="392.624" y="423.094" fill="#BFD1E2" stroke="#373636" stroke-width="4" stroke-linejoin="bevel" stroke-miterlimit="10" width="14.719" height="21.777"/>
		
			<line fill="none" stroke="#373636" stroke-width="2" stroke-linejoin="bevel" stroke-miterlimit="10" x1="399.984" y1="423.094" x2="399.984" y2="444.871"/>
	</g>
	<g>
		
			<rect x="400.513" y="388.855" fill="#BFD1E2" stroke="#373636" stroke-width="4" stroke-linejoin="bevel" stroke-miterlimit="10" width="14.719" height="18.509"/>
		
			<line fill="none" stroke="#373636" stroke-width="2" stroke-linejoin="bevel" stroke-miterlimit="10" x1="407.872" y1="388.855" x2="407.872" y2="407.364"/>
	</g>
	<g>
		
			<rect x="435.835" y="388.855" fill="#BFD1E2" stroke="#373636" stroke-width="4" stroke-linejoin="bevel" stroke-miterlimit="10" width="14.72" height="18.509"/>
		
			<line fill="none" stroke="#373636" stroke-width="2" stroke-linejoin="bevel" stroke-miterlimit="10" x1="443.195" y1="388.855" x2="443.195" y2="407.364"/>
	</g>
	<g>
		
			<rect x="420.416" y="365.097" fill="#BFD1E2" stroke="#373636" stroke-width="4" stroke-linejoin="bevel" stroke-miterlimit="10" width="10.475" height="13.172"/>
	</g>
	<g>
		
			<rect x="446.426" y="423.094" fill="#BFD1E2" stroke="#373636" stroke-width="4" stroke-linejoin="bevel" stroke-miterlimit="10" width="14.719" height="21.777"/>
		
			<line fill="none" stroke="#373636" stroke-width="2" stroke-linejoin="bevel" stroke-miterlimit="10" x1="453.785" y1="423.094" x2="453.785" y2="444.871"/>
	</g>
	<g>
		
			<rect x="461.145" y="423.094" fill="#BFD1E2" stroke="#373636" stroke-width="4" stroke-linejoin="bevel" stroke-miterlimit="10" width="14.72" height="21.777"/>
		
			<line fill="none" stroke="#373636" stroke-width="2" stroke-linejoin="bevel" stroke-miterlimit="10" x1="468.505" y1="423.094" x2="468.505" y2="444.871"/>
	</g>
	<g>
		<ellipse fill="#E03F57" cx="461.146" cy="445.664" rx="14.739" ry="4.134"/>
		
			<line fill="none" stroke="#52B375" stroke-width="4" stroke-miterlimit="10" x1="446.426" y1="448.095" x2="475.864" y2="448.095"/>
	</g>
	
		<line fill="none" stroke="#373636" stroke-width="4" stroke-linejoin="bevel" stroke-miterlimit="10" x1="357.611" y1="450.437" x2="493.696" y2="450.437"/>
	
		<line fill="none" stroke="#373636" stroke-width="4" stroke-linejoin="bevel" stroke-miterlimit="10" x1="425.352" y1="419.588" x2="425.352" y2="450.437"/>
	
		<line fill="none" stroke="#373636" stroke-width="2" stroke-linejoin="bevel" stroke-miterlimit="10" x1="425.352" y1="431.369" x2="413.808" y2="419.825"/>
	
		<line fill="none" stroke="#373636" stroke-width="2" stroke-linejoin="bevel" stroke-miterlimit="10" x1="425.352" y1="431.369" x2="437.302" y2="419.418"/>
	
		<line fill="none" stroke="#373636" stroke-width="2" stroke-linejoin="bevel" stroke-miterlimit="10" x1="377.905" y1="470.24" x2="365.791" y2="494.836"/>
	
		<line fill="none" stroke="#373636" stroke-width="2" stroke-linejoin="bevel" stroke-miterlimit="10" x1="473.918" y1="470.24" x2="485.517" y2="494.836"/>
	
		<line fill="none" stroke="#373636" stroke-width="4" stroke-linejoin="bevel" stroke-miterlimit="10" x1="360.581" y1="407.364" x2="490.658" y2="407.364"/>
	<g opacity="0.3">
		<polygon points="429.582,335.075 356.454,420.779 356.454,424.491 358.701,426.795 429.34,343.58 		"/>
		<rect x="356.454" y="420.779" width="138.409" height="3.949"/>
		<rect x="364.575" y="471.444" width="122.082" height="3.949"/>
		<polygon points="412.05,453.849 367.893,453.849 363.33,449.143 407.488,449.143 		"/>
		<polygon points="493.52,454.024 464.062,454.024 459.363,449.143 488.82,449.143 		"/>
	</g>
	<polygon fill="#826C5C" stroke="#373636" stroke-width="4" stroke-linejoin="bevel" stroke-miterlimit="10" points="
		501.133,419.554 493.696,419.554 425.412,339.652 357.611,419.554 350.174,419.554 425.654,331.148 	"/>
	<g>
		<path fill="#BFD1E2" stroke="#373636" stroke-width="4" stroke-linejoin="bevel" stroke-miterlimit="10" d="M445.582,487.062
			v14.919h20.396v-14.919C465.979,487.062,456.553,481.258,445.582,487.062z"/>
		
			<line fill="none" stroke="#373636" stroke-width="2" stroke-linejoin="bevel" stroke-miterlimit="10" x1="455.781" y1="484.484" x2="455.781" y2="501.98"/>
		
			<line fill="none" stroke="#373636" stroke-width="2" stroke-linejoin="bevel" stroke-miterlimit="10" x1="445.582" y1="491.847" x2="465.979" y2="491.847"/>
	</g>
	<g>
		<path fill="#826C5C" stroke="#373636" stroke-width="4" stroke-linejoin="bevel" stroke-miterlimit="10" d="M385.265,487.198
			v34.133h21.476v-34.133C406.741,487.198,396.815,481.087,385.265,487.198z"/>
		
			<line fill="none" stroke="#373636" stroke-width="2" stroke-linejoin="bevel" stroke-miterlimit="10" x1="396.003" y1="484.486" x2="396.003" y2="521.331"/>
		
			<line fill="none" stroke="#373636" stroke-width="2" stroke-linejoin="bevel" stroke-miterlimit="10" x1="385.265" y1="496.335" x2="406.741" y2="496.335"/>
	</g>
	
		<line fill="none" stroke="#373636" stroke-width="4" stroke-linejoin="bevel" stroke-miterlimit="10" x1="392.624" y1="378.371" x2="458.501" y2="378.371"/>
	<g>
		
			<line fill="none" stroke="#373636" stroke-width="2" stroke-linejoin="bevel" stroke-miterlimit="10" x1="400.695" y1="407.364" x2="400.695" y2="418.906"/>
		
			<line fill="none" stroke="#373636" stroke-width="2" stroke-linejoin="bevel" stroke-miterlimit="10" x1="376.007" y1="407.364" x2="376.007" y2="418.906"/>
		
			<line fill="none" stroke="#373636" stroke-width="2" stroke-linejoin="bevel" stroke-miterlimit="10" x1="395.8" y1="407.364" x2="381.083" y2="418.906"/>
		
			<line fill="none" stroke="#373636" stroke-width="2" stroke-linejoin="bevel" stroke-miterlimit="10" x1="381.083" y1="407.364" x2="395.8" y2="418.906"/>
	</g>
	<g>
		
			<line fill="none" stroke="#373636" stroke-width="2" stroke-linejoin="bevel" stroke-miterlimit="10" x1="425.401" y1="407.364" x2="425.401" y2="418.906"/>
		
			<line fill="none" stroke="#373636" stroke-width="2" stroke-linejoin="bevel" stroke-miterlimit="10" x1="420.507" y1="407.364" x2="405.79" y2="418.906"/>
		
			<line fill="none" stroke="#373636" stroke-width="2" stroke-linejoin="bevel" stroke-miterlimit="10" x1="405.79" y1="407.364" x2="420.507" y2="418.906"/>
	</g>
	<g>
		
			<line fill="none" stroke="#373636" stroke-width="2" stroke-linejoin="bevel" stroke-miterlimit="10" x1="450.108" y1="407.364" x2="450.108" y2="418.906"/>
		
			<line fill="none" stroke="#373636" stroke-width="2" stroke-linejoin="bevel" stroke-miterlimit="10" x1="445.215" y1="407.364" x2="430.498" y2="418.906"/>
		
			<line fill="none" stroke="#373636" stroke-width="2" stroke-linejoin="bevel" stroke-miterlimit="10" x1="430.498" y1="407.364" x2="445.215" y2="418.906"/>
	</g>
	<g>
		
			<line fill="none" stroke="#373636" stroke-width="2" stroke-linejoin="bevel" stroke-miterlimit="10" x1="474.816" y1="407.364" x2="474.816" y2="418.906"/>
		
			<line fill="none" stroke="#373636" stroke-width="2" stroke-linejoin="bevel" stroke-miterlimit="10" x1="469.922" y1="407.364" x2="455.204" y2="418.906"/>
		
			<line fill="none" stroke="#373636" stroke-width="2" stroke-linejoin="bevel" stroke-miterlimit="10" x1="455.204" y1="407.364" x2="469.922" y2="418.906"/>
	</g>
	<g>
		
			<line fill="none" stroke="#373636" stroke-width="2" stroke-linejoin="bevel" stroke-miterlimit="10" x1="380.988" y1="450.12" x2="380.988" y2="469.793"/>
		
			<line fill="none" stroke="#373636" stroke-width="2" stroke-linejoin="bevel" stroke-miterlimit="10" x1="380.988" y1="450.12" x2="374.863" y2="469.793"/>
		
			<line fill="none" stroke="#373636" stroke-width="2" stroke-linejoin="bevel" stroke-miterlimit="10" x1="380.987" y1="450.12" x2="387.111" y2="469.793"/>
	</g>
	<g>
		
			<line fill="none" stroke="#373636" stroke-width="2" stroke-linejoin="bevel" stroke-miterlimit="10" x1="403.17" y1="450.12" x2="403.17" y2="469.793"/>
		
			<line fill="none" stroke="#373636" stroke-width="2" stroke-linejoin="bevel" stroke-miterlimit="10" x1="403.17" y1="450.12" x2="397.045" y2="469.793"/>
		
			<line fill="none" stroke="#373636" stroke-width="2" stroke-linejoin="bevel" stroke-miterlimit="10" x1="403.169" y1="450.12" x2="409.293" y2="469.793"/>
	</g>
	<g>
		
			<line fill="none" stroke="#373636" stroke-width="2" stroke-linejoin="bevel" stroke-miterlimit="10" x1="425.352" y1="450.12" x2="425.352" y2="469.793"/>
		
			<line fill="none" stroke="#373636" stroke-width="2" stroke-linejoin="bevel" stroke-miterlimit="10" x1="425.352" y1="450.12" x2="419.228" y2="469.793"/>
		
			<line fill="none" stroke="#373636" stroke-width="2" stroke-linejoin="bevel" stroke-miterlimit="10" x1="425.351" y1="450.12" x2="431.476" y2="469.793"/>
	</g>
	<g>
		
			<line fill="none" stroke="#373636" stroke-width="2" stroke-linejoin="bevel" stroke-miterlimit="10" x1="447.535" y1="450.12" x2="447.535" y2="469.793"/>
		
			<line fill="none" stroke="#373636" stroke-width="2" stroke-linejoin="bevel" stroke-miterlimit="10" x1="447.535" y1="450.12" x2="441.41" y2="469.793"/>
		
			<line fill="none" stroke="#373636" stroke-width="2" stroke-linejoin="bevel" stroke-miterlimit="10" x1="447.533" y1="450.12" x2="453.658" y2="469.793"/>
	</g>
	<g>
		
			<line fill="none" stroke="#373636" stroke-width="2" stroke-linejoin="bevel" stroke-miterlimit="10" x1="469.717" y1="450.12" x2="469.717" y2="469.793"/>
		
			<line fill="none" stroke="#373636" stroke-width="2" stroke-linejoin="bevel" stroke-miterlimit="10" x1="469.717" y1="450.12" x2="463.592" y2="469.793"/>
		
			<line fill="none" stroke="#373636" stroke-width="2" stroke-linejoin="bevel" stroke-miterlimit="10" x1="469.716" y1="450.12" x2="475.84" y2="469.793"/>
	</g>
</g>
<g>
</g>
<g>
</g>
<g>
</g>
<g>
</g>
<g>
</g>
<g>
</g>
</svg>
