<?xml version="1.0" encoding="utf-8"?>
<!-- Generator: Adobe Illustrator 16.0.0, SVG Export Plug-In . SVG Version: 6.00 Build 0)  -->
<!DOCTYPE svg PUBLIC "-//W3C//DTD SVG 1.1//EN" "http://www.w3.org/Graphics/SVG/1.1/DTD/svg11.dtd">
<svg version="1.1" id="Layer_1" xmlns="http://www.w3.org/2000/svg" xmlns:xlink="http://www.w3.org/1999/xlink" x="0px" y="0px"
	 width="850.39px" height="850.39px" viewBox="0 0 850.39 850.39" enable-background="new 0 0 850.39 850.39" xml:space="preserve">
<g>
	<polygon fill="#E7C5A7" stroke="#373636" stroke-width="4" stroke-linejoin="bevel" stroke-miterlimit="10" points="
		348.833,418.232 340.399,418.232 426.008,317.962 466.916,365.875 476.195,376.742 511.619,418.232 503.184,418.232 
		503.184,475.724 493.906,475.724 493.906,533.672 358.111,533.672 358.111,475.724 348.833,475.724 	"/>
	
		<line fill="none" stroke="#373636" stroke-width="4" stroke-linejoin="bevel" stroke-miterlimit="10" x1="358.111" y1="475.724" x2="493.906" y2="475.724"/>
	
		<line fill="none" stroke="#373636" stroke-width="4" stroke-linejoin="bevel" stroke-miterlimit="10" x1="503.186" y1="418.272" x2="348.833" y2="418.272"/>
	<g>
		
			<rect x="409.315" y="383.415" fill="#BFD1E2" stroke="#373636" stroke-width="4" stroke-linejoin="bevel" stroke-miterlimit="10" width="16.695" height="20.994"/>
		
			<line fill="none" stroke="#373636" stroke-width="2" stroke-linejoin="bevel" stroke-miterlimit="10" x1="417.662" y1="383.415" x2="417.662" y2="404.409"/>
	</g>
	<g>
		
			<rect x="426.008" y="383.415" fill="#BFD1E2" stroke="#373636" stroke-width="4" stroke-linejoin="bevel" stroke-miterlimit="10" width="16.695" height="20.994"/>
		
			<line fill="none" stroke="#373636" stroke-width="2" stroke-linejoin="bevel" stroke-miterlimit="10" x1="434.355" y1="383.415" x2="434.355" y2="404.409"/>
	</g>
	<g>
		
			<rect x="417.662" y="350.531" fill="#BFD1E2" stroke="#373636" stroke-width="4" stroke-linejoin="bevel" stroke-miterlimit="10" width="16.694" height="20.993"/>
		
			<line fill="none" stroke="#373636" stroke-width="2" stroke-linejoin="bevel" stroke-miterlimit="10" x1="426.008" y1="350.531" x2="426.008" y2="371.524"/>
	</g>
	<g>
		<g>
			
				<rect x="442.496" y="422.25" fill="#BFD1E2" stroke="#373636" stroke-width="4" stroke-linejoin="bevel" stroke-miterlimit="10" width="16.693" height="24.699"/>
			
				<line fill="none" stroke="#373636" stroke-width="2" stroke-linejoin="bevel" stroke-miterlimit="10" x1="450.844" y1="422.25" x2="450.844" y2="446.949"/>
		</g>
		<g>
			
				<rect x="459.189" y="422.25" fill="#BFD1E2" stroke="#373636" stroke-width="4" stroke-linejoin="bevel" stroke-miterlimit="10" width="16.695" height="24.699"/>
			
				<line fill="none" stroke="#373636" stroke-width="2" stroke-linejoin="bevel" stroke-miterlimit="10" x1="467.539" y1="422.25" x2="467.539" y2="446.949"/>
		</g>
		<g>
			
				<rect x="475.885" y="422.25" fill="#BFD1E2" stroke="#373636" stroke-width="4" stroke-linejoin="bevel" stroke-miterlimit="10" width="16.695" height="24.699"/>
			
				<line fill="none" stroke="#373636" stroke-width="2" stroke-linejoin="bevel" stroke-miterlimit="10" x1="484.232" y1="422.25" x2="484.232" y2="446.949"/>
		</g>
	</g>
	<g>
		<g>
			
				<rect x="363.376" y="422.25" fill="#BFD1E2" stroke="#373636" stroke-width="4" stroke-linejoin="bevel" stroke-miterlimit="10" width="16.695" height="24.699"/>
			
				<line fill="none" stroke="#373636" stroke-width="2" stroke-linejoin="bevel" stroke-miterlimit="10" x1="371.723" y1="422.25" x2="371.723" y2="446.949"/>
		</g>
		<g>
			
				<rect x="380.072" y="422.25" fill="#BFD1E2" stroke="#373636" stroke-width="4" stroke-linejoin="bevel" stroke-miterlimit="10" width="16.692" height="24.699"/>
			
				<line fill="none" stroke="#373636" stroke-width="2" stroke-linejoin="bevel" stroke-miterlimit="10" x1="388.418" y1="422.25" x2="388.418" y2="446.949"/>
		</g>
		<ellipse fill="#E03F57" cx="380.07" cy="447.849" rx="16.717" ry="4.689"/>
		
			<line fill="none" stroke="#52B375" stroke-width="4" stroke-miterlimit="10" x1="363.376" y1="450.606" x2="396.764" y2="450.606"/>
	</g>
	
		<line fill="none" stroke="#373636" stroke-width="4" stroke-linejoin="bevel" stroke-miterlimit="10" x1="348.833" y1="453.262" x2="503.184" y2="453.262"/>
	
		<line fill="none" stroke="#373636" stroke-width="4" stroke-linejoin="bevel" stroke-miterlimit="10" x1="425.455" y1="418.272" x2="425.455" y2="475.724"/>
	
		<line fill="none" stroke="#373636" stroke-width="4" stroke-linejoin="bevel" stroke-miterlimit="10" x1="398.251" y1="431.634" x2="441.887" y2="431.634"/>
	
		<line fill="none" stroke="#373636" stroke-width="2" stroke-linejoin="bevel" stroke-miterlimit="10" x1="425.455" y1="431.634" x2="412.363" y2="418.542"/>
	
		<line fill="none" stroke="#373636" stroke-width="2" stroke-linejoin="bevel" stroke-miterlimit="10" x1="425.455" y1="431.634" x2="439.012" y2="418.08"/>
	
		<line fill="none" stroke="#373636" stroke-width="2" stroke-linejoin="bevel" stroke-miterlimit="10" x1="425.455" y1="431.634" x2="398.693" y2="475.724"/>
	
		<line fill="none" stroke="#373636" stroke-width="2" stroke-linejoin="bevel" stroke-miterlimit="10" x1="425.455" y1="431.634" x2="452.912" y2="475.724"/>
	
		<line fill="none" stroke="#373636" stroke-width="4" stroke-linejoin="bevel" stroke-miterlimit="10" x1="380.198" y1="452.538" x2="380.198" y2="475.724"/>
	
		<line fill="none" stroke="#373636" stroke-width="4" stroke-linejoin="bevel" stroke-miterlimit="10" x1="475.885" y1="452.538" x2="475.885" y2="475.724"/>
	
		<line fill="none" stroke="#373636" stroke-width="2" stroke-linejoin="bevel" stroke-miterlimit="10" x1="355.157" y1="453.262" x2="371.851" y2="475.724"/>
	
		<line fill="none" stroke="#373636" stroke-width="2" stroke-linejoin="bevel" stroke-miterlimit="10" x1="492.604" y1="453.262" x2="484.232" y2="475.724"/>
	
		<line fill="none" stroke="#373636" stroke-width="2" stroke-linejoin="bevel" stroke-miterlimit="10" x1="371.851" y1="475.724" x2="358.111" y2="503.62"/>
	
		<line fill="none" stroke="#373636" stroke-width="2" stroke-linejoin="bevel" stroke-miterlimit="10" x1="475.885" y1="475.724" x2="493.906" y2="503.62"/>
	
		<line fill="none" stroke="#373636" stroke-width="4" stroke-linejoin="bevel" stroke-miterlimit="10" x1="352.202" y1="404.409" x2="499.736" y2="404.409"/>
	
		<line fill="none" stroke="#373636" stroke-width="4" stroke-linejoin="bevel" stroke-miterlimit="10" x1="370.126" y1="383.415" x2="481.344" y2="383.415"/>
	<g opacity="0.3">
		<polygon points="430.463,322.418 347.52,419.624 347.52,423.833 350.069,426.447 430.189,332.063 		"/>
		<rect x="347.52" y="419.624" width="156.986" height="4.479"/>
		<rect x="356.731" y="477.089" width="138.47" height="4.479"/>
		<polygon points="402.305,457.331 368.892,457.331 363.563,451.794 396.974,451.794 		"/>
	</g>
	<polygon fill="#826C5C" stroke="#373636" stroke-width="4" stroke-linejoin="bevel" stroke-miterlimit="10" points="
		511.619,418.232 503.184,418.232 425.735,327.608 348.833,418.232 340.399,418.232 426.008,317.962 	"/>
	<g>
		<path fill="#BFD1E2" stroke="#373636" stroke-width="4" stroke-linejoin="bevel" stroke-miterlimit="10" d="M373.763,496.585
			v27.233h37.23v-27.233C410.994,496.585,393.787,485.99,373.763,496.585z"/>
		
			<line fill="none" stroke="#373636" stroke-width="2" stroke-linejoin="bevel" stroke-miterlimit="10" x1="392.377" y1="491.88" x2="392.377" y2="523.818"/>
		
			<line fill="none" stroke="#373636" stroke-width="2" stroke-linejoin="bevel" stroke-miterlimit="10" x1="373.763" y1="505.321" x2="410.994" y2="505.321"/>
	</g>
	<g>
		<path fill="#826C5C" stroke="#373636" stroke-width="4" stroke-linejoin="bevel" stroke-miterlimit="10" d="M446.988,494.958
			v38.714h24.359v-38.714C471.348,494.958,460.09,488.026,446.988,494.958z"/>
		
			<line fill="none" stroke="#373636" stroke-width="2" stroke-linejoin="bevel" stroke-miterlimit="10" x1="459.166" y1="491.882" x2="459.166" y2="533.672"/>
		
			<line fill="none" stroke="#373636" stroke-width="2" stroke-linejoin="bevel" stroke-miterlimit="10" x1="446.988" y1="505.321" x2="471.348" y2="505.321"/>
	</g>
	
		<line fill="none" stroke="#373636" stroke-width="4" stroke-linejoin="bevel" stroke-miterlimit="10" x1="406.281" y1="350.531" x2="445.324" y2="350.531"/>
	
		<line fill="none" stroke="#373636" stroke-width="4" stroke-linejoin="bevel" stroke-miterlimit="10" x1="388.545" y1="371.524" x2="463.266" y2="371.524"/>
	<g>
		
			<line fill="none" stroke="#373636" stroke-width="2" stroke-linejoin="bevel" stroke-miterlimit="10" x1="425.613" y1="404.876" x2="425.613" y2="418.203"/>
		
			<line fill="none" stroke="#373636" stroke-width="2" stroke-linejoin="bevel" stroke-miterlimit="10" x1="425.613" y1="404.876" x2="412.325" y2="418.162"/>
		
			<line fill="none" stroke="#373636" stroke-width="2" stroke-linejoin="bevel" stroke-miterlimit="10" x1="425.613" y1="404.876" x2="439.279" y2="418.542"/>
		
			<line fill="none" stroke="#373636" stroke-width="2" stroke-linejoin="bevel" stroke-miterlimit="10" x1="467.348" y1="404.876" x2="467.348" y2="418.203"/>
		
			<line fill="none" stroke="#373636" stroke-width="2" stroke-linejoin="bevel" stroke-miterlimit="10" x1="467.348" y1="404.876" x2="454.059" y2="418.162"/>
		
			<line fill="none" stroke="#373636" stroke-width="2" stroke-linejoin="bevel" stroke-miterlimit="10" x1="467.348" y1="404.876" x2="481.016" y2="418.542"/>
		
			<line fill="none" stroke="#373636" stroke-width="2" stroke-linejoin="bevel" stroke-miterlimit="10" x1="380.01" y1="404.876" x2="380.01" y2="418.203"/>
		
			<line fill="none" stroke="#373636" stroke-width="2" stroke-linejoin="bevel" stroke-miterlimit="10" x1="380.01" y1="404.876" x2="366.72" y2="418.162"/>
		
			<line fill="none" stroke="#373636" stroke-width="2" stroke-linejoin="bevel" stroke-miterlimit="10" x1="380.01" y1="404.876" x2="393.676" y2="418.542"/>
	</g>
	<g>
		
			<line fill="none" stroke="#373636" stroke-width="2" stroke-linejoin="bevel" stroke-miterlimit="10" x1="389.484" y1="371.58" x2="389.484" y2="383.415"/>
	</g>
	<g>
		
			<line fill="none" stroke="#373636" stroke-width="2" stroke-linejoin="bevel" stroke-miterlimit="10" x1="414.077" y1="371.58" x2="414.077" y2="383.415"/>
		
			<line fill="none" stroke="#373636" stroke-width="2" stroke-linejoin="bevel" stroke-miterlimit="10" x1="409.206" y1="371.58" x2="394.556" y2="383.415"/>
		
			<line fill="none" stroke="#373636" stroke-width="2" stroke-linejoin="bevel" stroke-miterlimit="10" x1="394.556" y1="371.58" x2="409.206" y2="383.415"/>
	</g>
	<g>
		
			<line fill="none" stroke="#373636" stroke-width="2" stroke-linejoin="bevel" stroke-miterlimit="10" x1="438.672" y1="371.58" x2="438.672" y2="383.415"/>
		
			<line fill="none" stroke="#373636" stroke-width="2" stroke-linejoin="bevel" stroke-miterlimit="10" x1="433.799" y1="371.58" x2="419.149" y2="383.415"/>
		
			<line fill="none" stroke="#373636" stroke-width="2" stroke-linejoin="bevel" stroke-miterlimit="10" x1="419.149" y1="371.58" x2="433.799" y2="383.415"/>
	</g>
	<g>
		
			<line fill="none" stroke="#373636" stroke-width="2" stroke-linejoin="bevel" stroke-miterlimit="10" x1="463.266" y1="371.58" x2="463.266" y2="383.415"/>
		
			<line fill="none" stroke="#373636" stroke-width="2" stroke-linejoin="bevel" stroke-miterlimit="10" x1="458.395" y1="371.58" x2="443.744" y2="383.415"/>
		
			<line fill="none" stroke="#373636" stroke-width="2" stroke-linejoin="bevel" stroke-miterlimit="10" x1="443.744" y1="371.58" x2="458.395" y2="383.415"/>
	</g>
</g>
<g>
</g>
<g>
</g>
<g>
</g>
<g>
</g>
<g>
</g>
<g>
</g>
</svg>
