<?xml version="1.0" encoding="utf-8"?>
<!-- Generator: Adobe Illustrator 16.0.0, SVG Export Plug-In . SVG Version: 6.00 Build 0)  -->
<!DOCTYPE svg PUBLIC "-//W3C//DTD SVG 1.1//EN" "http://www.w3.org/Graphics/SVG/1.1/DTD/svg11.dtd">
<svg version="1.1" id="Layer_1" xmlns="http://www.w3.org/2000/svg" xmlns:xlink="http://www.w3.org/1999/xlink" x="0px" y="0px"
	 width="850.39px" height="850.39px" viewBox="0 0 850.39 850.39" enable-background="new 0 0 850.39 850.39" xml:space="preserve">
<g>
	<polygon fill="#FCFAE1" stroke="#373636" stroke-width="4" stroke-linejoin="bevel" stroke-miterlimit="10" points="
		478.195,397.41 478.008,397.41 425.84,335.449 373.672,397.41 373.483,397.41 373.483,473.199 381.807,473.199 381.807,525.185 
		469.873,525.185 469.873,473.199 478.195,473.199 	"/>
	<g>
		
			<rect x="392.333" y="433.701" fill="#BFD1E2" stroke="#373636" stroke-width="4" stroke-linejoin="bevel" stroke-miterlimit="10" width="16.753" height="24.786"/>
		
			<line fill="none" stroke="#373636" stroke-width="2" stroke-linejoin="bevel" stroke-miterlimit="10" x1="400.71" y1="433.701" x2="400.71" y2="458.487"/>
	</g>
	<g>
		
			<rect x="409.086" y="433.701" fill="#BFD1E2" stroke="#373636" stroke-width="4" stroke-linejoin="bevel" stroke-miterlimit="10" width="16.753" height="24.786"/>
		
			<line fill="none" stroke="#373636" stroke-width="2" stroke-linejoin="bevel" stroke-miterlimit="10" x1="417.463" y1="433.701" x2="417.463" y2="458.487"/>
	</g>
	<g>
		
			<rect x="425.839" y="433.701" fill="#BFD1E2" stroke="#373636" stroke-width="4" stroke-linejoin="bevel" stroke-miterlimit="10" width="16.752" height="24.786"/>
		
			<line fill="none" stroke="#373636" stroke-width="2" stroke-linejoin="bevel" stroke-miterlimit="10" x1="434.217" y1="433.701" x2="434.217" y2="458.487"/>
	</g>
	<g>
		
			<rect x="442.592" y="433.701" fill="#BFD1E2" stroke="#373636" stroke-width="4" stroke-linejoin="bevel" stroke-miterlimit="10" width="16.754" height="24.786"/>
		
			<line fill="none" stroke="#373636" stroke-width="2" stroke-linejoin="bevel" stroke-miterlimit="10" x1="450.969" y1="433.701" x2="450.969" y2="458.487"/>
	</g>
	<g>
		
			<rect x="384.301" y="397.566" fill="#BFD1E2" stroke="#373636" stroke-width="4" stroke-linejoin="bevel" stroke-miterlimit="10" width="13.715" height="20.29"/>
		
			<line fill="none" stroke="#373636" stroke-width="2" stroke-linejoin="bevel" stroke-miterlimit="10" x1="391.159" y1="397.566" x2="391.159" y2="417.856"/>
	</g>
	<g>
		
			<rect x="407.325" y="397.566" fill="#BFD1E2" stroke="#373636" stroke-width="4" stroke-linejoin="bevel" stroke-miterlimit="10" width="13.714" height="20.29"/>
		
			<line fill="none" stroke="#373636" stroke-width="2" stroke-linejoin="bevel" stroke-miterlimit="10" x1="414.182" y1="397.566" x2="414.182" y2="417.856"/>
	</g>
	<g>
		
			<rect x="430.348" y="397.566" fill="#BFD1E2" stroke="#373636" stroke-width="4" stroke-linejoin="bevel" stroke-miterlimit="10" width="13.713" height="20.29"/>
		
			<line fill="none" stroke="#373636" stroke-width="2" stroke-linejoin="bevel" stroke-miterlimit="10" x1="437.205" y1="397.566" x2="437.205" y2="417.856"/>
	</g>
	<g>
		
			<rect x="453.371" y="397.566" fill="#BFD1E2" stroke="#373636" stroke-width="4" stroke-linejoin="bevel" stroke-miterlimit="10" width="13.715" height="20.29"/>
		
			<line fill="none" stroke="#373636" stroke-width="2" stroke-linejoin="bevel" stroke-miterlimit="10" x1="460.229" y1="397.566" x2="460.229" y2="417.856"/>
	</g>
	
		<line fill="none" stroke="#373636" stroke-width="4" stroke-linejoin="bevel" stroke-miterlimit="10" x1="381.807" y1="473.346" x2="469.873" y2="473.346"/>
	
		<line fill="none" stroke="#373636" stroke-width="4" stroke-linejoin="bevel" stroke-miterlimit="10" x1="373.483" y1="458.487" x2="478.195" y2="458.487"/>
	
		<rect x="373.483" y="426.365" fill="#826C5C" stroke="#373636" stroke-width="4" stroke-linejoin="bevel" stroke-miterlimit="10" width="104.712" height="7.336"/>
	
		<line fill="none" stroke="#373636" stroke-width="4" stroke-linejoin="bevel" stroke-miterlimit="10" x1="373.672" y1="397.557" x2="478.195" y2="397.557"/>
	
		<line fill="none" stroke="#373636" stroke-width="4" stroke-linejoin="bevel" stroke-miterlimit="10" x1="373.483" y1="417.856" x2="478.195" y2="417.856"/>
	<g>
		
			<line fill="none" stroke="#373636" stroke-width="2" stroke-linejoin="bevel" stroke-miterlimit="10" x1="392.333" y1="458.487" x2="392.333" y2="473.346"/>
		
			<line fill="none" stroke="#373636" stroke-width="2" stroke-linejoin="bevel" stroke-miterlimit="10" x1="392.333" y1="458.487" x2="387.708" y2="473.346"/>
		
			<line fill="none" stroke="#373636" stroke-width="2" stroke-linejoin="bevel" stroke-miterlimit="10" x1="392.333" y1="458.487" x2="396.958" y2="473.346"/>
	</g>
	<g>
		
			<line fill="none" stroke="#373636" stroke-width="2" stroke-linejoin="bevel" stroke-miterlimit="10" x1="409.086" y1="458.487" x2="409.086" y2="473.346"/>
		
			<line fill="none" stroke="#373636" stroke-width="2" stroke-linejoin="bevel" stroke-miterlimit="10" x1="409.086" y1="458.487" x2="404.461" y2="473.346"/>
		
			<line fill="none" stroke="#373636" stroke-width="2" stroke-linejoin="bevel" stroke-miterlimit="10" x1="409.086" y1="458.487" x2="413.711" y2="473.346"/>
	</g>
	<g>
		
			<line fill="none" stroke="#373636" stroke-width="2" stroke-linejoin="bevel" stroke-miterlimit="10" x1="425.839" y1="458.487" x2="425.839" y2="473.346"/>
		
			<line fill="none" stroke="#373636" stroke-width="2" stroke-linejoin="bevel" stroke-miterlimit="10" x1="425.839" y1="458.487" x2="421.214" y2="473.346"/>
		
			<line fill="none" stroke="#373636" stroke-width="2" stroke-linejoin="bevel" stroke-miterlimit="10" x1="425.839" y1="458.487" x2="430.465" y2="473.346"/>
	</g>
	<g>
		
			<line fill="none" stroke="#373636" stroke-width="2" stroke-linejoin="bevel" stroke-miterlimit="10" x1="442.594" y1="458.487" x2="442.594" y2="473.346"/>
		
			<line fill="none" stroke="#373636" stroke-width="2" stroke-linejoin="bevel" stroke-miterlimit="10" x1="442.594" y1="458.487" x2="437.967" y2="473.346"/>
		
			<line fill="none" stroke="#373636" stroke-width="2" stroke-linejoin="bevel" stroke-miterlimit="10" x1="442.592" y1="458.487" x2="447.217" y2="473.346"/>
	</g>
	<g>
		
			<line fill="none" stroke="#373636" stroke-width="2" stroke-linejoin="bevel" stroke-miterlimit="10" x1="459.346" y1="458.487" x2="459.346" y2="473.346"/>
		
			<line fill="none" stroke="#373636" stroke-width="2" stroke-linejoin="bevel" stroke-miterlimit="10" x1="459.346" y1="458.487" x2="454.721" y2="473.346"/>
		
			<line fill="none" stroke="#373636" stroke-width="2" stroke-linejoin="bevel" stroke-miterlimit="10" x1="459.346" y1="458.487" x2="463.971" y2="473.346"/>
	</g>
	<g>
		
			<line fill="none" stroke="#373636" stroke-width="2" stroke-linejoin="bevel" stroke-miterlimit="10" x1="402.576" y1="417.856" x2="402.576" y2="426.365"/>
		
			<line fill="none" stroke="#373636" stroke-width="2" stroke-linejoin="bevel" stroke-miterlimit="10" x1="379.571" y1="417.856" x2="379.571" y2="426.365"/>
		
			<line fill="none" stroke="#373636" stroke-width="2" stroke-linejoin="bevel" stroke-miterlimit="10" x1="398.016" y1="417.856" x2="384.301" y2="426.365"/>
		
			<line fill="none" stroke="#373636" stroke-width="2" stroke-linejoin="bevel" stroke-miterlimit="10" x1="384.301" y1="417.856" x2="398.016" y2="426.365"/>
	</g>
	<g>
		
			<line fill="none" stroke="#373636" stroke-width="2" stroke-linejoin="bevel" stroke-miterlimit="10" x1="425.6" y1="417.856" x2="425.6" y2="426.365"/>
		
			<line fill="none" stroke="#373636" stroke-width="2" stroke-linejoin="bevel" stroke-miterlimit="10" x1="421.039" y1="417.856" x2="407.325" y2="426.365"/>
		
			<line fill="none" stroke="#373636" stroke-width="2" stroke-linejoin="bevel" stroke-miterlimit="10" x1="407.325" y1="417.856" x2="421.039" y2="426.365"/>
	</g>
	<g>
		
			<line fill="none" stroke="#373636" stroke-width="2" stroke-linejoin="bevel" stroke-miterlimit="10" x1="448.623" y1="417.856" x2="448.623" y2="426.365"/>
		
			<line fill="none" stroke="#373636" stroke-width="2" stroke-linejoin="bevel" stroke-miterlimit="10" x1="444.061" y1="417.856" x2="430.348" y2="426.365"/>
		
			<line fill="none" stroke="#373636" stroke-width="2" stroke-linejoin="bevel" stroke-miterlimit="10" x1="430.348" y1="417.856" x2="444.061" y2="426.365"/>
	</g>
	<g>
		
			<line fill="none" stroke="#373636" stroke-width="2" stroke-linejoin="bevel" stroke-miterlimit="10" x1="471.645" y1="417.856" x2="471.645" y2="426.365"/>
		
			<line fill="none" stroke="#373636" stroke-width="2" stroke-linejoin="bevel" stroke-miterlimit="10" x1="467.086" y1="417.856" x2="453.371" y2="426.365"/>
		
			<line fill="none" stroke="#373636" stroke-width="2" stroke-linejoin="bevel" stroke-miterlimit="10" x1="453.371" y1="417.856" x2="467.086" y2="426.365"/>
	</g>
	
		<line fill="none" stroke="#373636" stroke-width="2" stroke-linejoin="bevel" stroke-miterlimit="10" x1="387.708" y1="473.346" x2="381.807" y2="490.766"/>
	
		<line fill="none" stroke="#373636" stroke-width="2" stroke-linejoin="bevel" stroke-miterlimit="10" x1="463.971" y1="473.346" x2="469.873" y2="490.766"/>
	<g opacity="0.3">
		<polygon points="429.588,331.266 372.274,399.304 372.274,402.846 374.417,405.043 429.357,339.382 		"/>
		<rect x="374.683" y="398.758" width="104.655" height="3.769"/>
		<rect x="380.689" y="474.516" width="90.229" height="3.768"/>
		<polygon points="479.338,438.641 376.249,438.641 372.349,434.873 479.338,434.873 		"/>
	</g>
	<polygon fill="#826C5C" stroke="#373636" stroke-width="4" stroke-linejoin="bevel" stroke-miterlimit="10" points="
		485.295,397.557 478.195,397.557 425.608,335.634 373.483,397.557 366.385,397.557 425.839,327.518 	"/>
	<g>
		<path fill="#826C5C" stroke="#373636" stroke-width="4" stroke-linejoin="bevel" stroke-miterlimit="10" d="M407.425,497.942
			v27.389h36.831v-27.389C444.256,497.942,427.188,480.179,407.425,497.942z"/>
		
			<line fill="none" stroke="#373636" stroke-width="2" stroke-linejoin="bevel" stroke-miterlimit="10" x1="425.84" y1="490.172" x2="425.84" y2="525.331"/>
	</g>
	<g>
		<path fill="#BFD1E2" stroke="#373636" stroke-width="4" stroke-linejoin="bevel" stroke-miterlimit="10" d="M407.331,378.707
			v9.896h13.531v-9.896C420.862,378.707,414.608,374.856,407.331,378.707z"/>
		
			<line fill="none" stroke="#373636" stroke-width="2" stroke-linejoin="bevel" stroke-miterlimit="10" x1="414.096" y1="376.997" x2="414.096" y2="388.604"/>
	</g>
	<g>
		<path fill="#BFD1E2" stroke="#373636" stroke-width="4" stroke-linejoin="bevel" stroke-miterlimit="10" d="M430.355,378.707
			v9.896h13.529v-9.896C443.885,378.707,437.631,374.856,430.355,378.707z"/>
		
			<line fill="none" stroke="#373636" stroke-width="2" stroke-linejoin="bevel" stroke-miterlimit="10" x1="437.121" y1="376.997" x2="437.121" y2="388.604"/>
	</g>
	<g>
		
			<rect x="418.096" y="357.877" fill="#BFD1E2" stroke="#373636" stroke-width="4" stroke-linejoin="bevel" stroke-miterlimit="10" width="7.512" height="8.055"/>
		
			<rect x="425.608" y="357.877" fill="#BFD1E2" stroke="#373636" stroke-width="4" stroke-linejoin="bevel" stroke-miterlimit="10" width="7.513" height="8.055"/>
	</g>
	
		<line fill="none" stroke="#373636" stroke-width="2" stroke-linejoin="bevel" stroke-miterlimit="10" x1="400.438" y1="366.516" x2="450.777" y2="366.516"/>
	
		<line fill="none" stroke="#373636" stroke-width="2" stroke-linejoin="bevel" stroke-miterlimit="10" x1="380.163" y1="389.188" x2="471.053" y2="389.188"/>
	
		<line fill="none" stroke="#373636" stroke-width="2" stroke-linejoin="bevel" stroke-miterlimit="10" x1="425.608" y1="335.634" x2="425.608" y2="397.557"/>
</g>
<g>
</g>
<g>
</g>
<g>
</g>
<g>
</g>
<g>
</g>
<g>
</g>
</svg>
