<?xml version="1.0" encoding="utf-8"?>
<!-- Generator: Adobe Illustrator 16.0.0, SVG Export Plug-In . SVG Version: 6.00 Build 0)  -->
<!DOCTYPE svg PUBLIC "-//W3C//DTD SVG 1.1//EN" "http://www.w3.org/Graphics/SVG/1.1/DTD/svg11.dtd">
<svg version="1.1" id="Layer_1" xmlns="http://www.w3.org/2000/svg" xmlns:xlink="http://www.w3.org/1999/xlink" x="0px" y="0px"
	 width="850.39px" height="850.39px" viewBox="0 0 850.39 850.39" enable-background="new 0 0 850.39 850.39" xml:space="preserve">
<g>
	<g id="tourelle">
		
			<rect x="375.336" y="214.759" fill="#E3E3E3" stroke="#373636" stroke-width="4" stroke-linejoin="bevel" stroke-miterlimit="10" width="100.291" height="34.979"/>
		
			<rect x="387.105" y="174.848" fill="#E3E3E3" stroke="#373636" stroke-width="4" stroke-linejoin="bevel" stroke-miterlimit="10" width="76.752" height="7.675"/>
		<polygon fill="#E3E3E3" stroke="#373636" stroke-width="4" stroke-linejoin="bevel" stroke-miterlimit="10" points="
			487.906,214.759 363.055,214.759 358.962,182.523 492,182.523 		"/>
		
			<line fill="none" stroke="#373636" stroke-width="4" stroke-linejoin="bevel" stroke-miterlimit="10" x1="425.481" y1="174.848" x2="425.481" y2="106.794"/>
		<polygon fill="#BFD1E2" stroke="#373636" stroke-width="2" stroke-linejoin="bevel" stroke-miterlimit="10" points="
			367.941,201.776 361.796,201.776 360.368,190.519 367.941,190.519 		"/>
		
			<rect x="373.359" y="190.519" fill="#BFD1E2" stroke="#373636" stroke-width="2" stroke-linejoin="bevel" stroke-miterlimit="10" width="16.514" height="11.257"/>
		
			<rect x="395.292" y="190.519" fill="#BFD1E2" stroke="#373636" stroke-width="2" stroke-linejoin="bevel" stroke-miterlimit="10" width="16.514" height="11.257"/>
		
			<rect x="417.224" y="190.519" fill="#BFD1E2" stroke="#373636" stroke-width="2" stroke-linejoin="bevel" stroke-miterlimit="10" width="16.514" height="11.257"/>
		
			<rect x="439.156" y="190.519" fill="#BFD1E2" stroke="#373636" stroke-width="2" stroke-linejoin="bevel" stroke-miterlimit="10" width="16.514" height="11.257"/>
		
			<rect x="461.09" y="190.519" fill="#BFD1E2" stroke="#373636" stroke-width="2" stroke-linejoin="bevel" stroke-miterlimit="10" width="16.514" height="11.257"/>
		<polygon fill="#BFD1E2" stroke="#373636" stroke-width="2" stroke-linejoin="bevel" stroke-miterlimit="10" points="
			489.086,201.776 483.021,201.776 483.021,190.519 490.596,190.519 		"/>
		<polygon opacity="0.3" points="475.627,249.749 404.162,249.749 375.336,220.923 375.336,214.759 475.627,214.759 		"/>
	</g>
	<g id="batiment_1_">
		
			<rect x="395.292" y="234.715" fill="#AD9183" stroke="#373636" stroke-width="4" stroke-linejoin="bevel" stroke-miterlimit="10" width="20.468" height="503.495"/>
		<g>
			<rect x="435.203" y="234.715" fill="#AD9183" width="20.467" height="503.495"/>
			<polygon fill="#715F55" points="454.764,738.21 435.32,738.21 435.32,234.715 454.764,254.213 			"/>
			
				<rect x="435.203" y="234.715" fill="none" stroke="#373636" stroke-width="4" stroke-linejoin="bevel" stroke-miterlimit="10" width="20.467" height="503.495"/>
		</g>
		
			<rect x="415.759" y="222.435" fill="#E3E3E3" stroke="#373636" stroke-width="4" stroke-linejoin="bevel" stroke-miterlimit="10" width="19.444" height="521.916"/>
		<g>
			<g>
				<defs>
					<path id="SVGID_1_" d="M311.375,732.07V259.275c46.563-1.279,83.916-24.561,83.916-24.561V738.21L311.375,732.07z"/>
				</defs>
				<use xlink:href="#SVGID_1_"  overflow="visible" fill="#E3E3E3"/>
				<clipPath id="SVGID_2_">
					<use xlink:href="#SVGID_1_"  overflow="visible"/>
				</clipPath>
				<g clip-path="url(#SVGID_2_)">
					<rect x="311.375" y="222.435" fill="#BFD1E2" width="11.538" height="515.775"/>
					<rect x="330.875" y="222.435" fill="#BFD1E2" width="10.622" height="515.775"/>
					<rect x="348.827" y="222.435" fill="#BFD1E2" width="8.789" height="515.775"/>
					<rect x="363.681" y="222.435" fill="#BFD1E2" width="7.13" height="515.775"/>
					<rect x="375.731" y="222.435" fill="#BFD1E2" width="4.899" height="515.775"/>
					<rect x="384.011" y="222.435" fill="#BFD1E2" width="3.422" height="515.775"/>
					<rect x="389.794" y="222.435" fill="#BFD1E2" width="2.069" height="515.775"/>
					<rect x="393.292" y="222.435" fill="#BFD1E2" width="1.221" height="515.775"/>
				</g>
			</g>
			<g>
				<path fill="none" stroke="#AD9183" stroke-width="4" stroke-linejoin="bevel" stroke-miterlimit="10" d="M311.375,276.665
					c46.563-1.299,83.916-23.95,83.916-23.95"/>
				<path fill="none" stroke="#AD9183" stroke-width="4" stroke-linejoin="bevel" stroke-miterlimit="10" d="M311.375,294.864
					c46.563-1.298,83.916-21.95,83.916-21.95"/>
				<path fill="none" stroke="#AD9183" stroke-width="4" stroke-linejoin="bevel" stroke-miterlimit="10" d="M311.375,313.063
					c46.563-1.299,83.916-20.95,83.916-20.95"/>
				<path fill="none" stroke="#AD9183" stroke-width="4" stroke-linejoin="bevel" stroke-miterlimit="10" d="M311.375,331.262
					c46.563-1.298,83.916-19.95,83.916-19.95"/>
				<path fill="none" stroke="#AD9183" stroke-width="4" stroke-linejoin="bevel" stroke-miterlimit="10" d="M311.375,349.461
					c46.563-1.299,83.916-18.95,83.916-18.95"/>
				<path fill="none" stroke="#AD9183" stroke-width="4" stroke-linejoin="bevel" stroke-miterlimit="10" d="M311.375,367.66
					c46.563-1.298,83.916-17.95,83.916-17.95"/>
				<path fill="none" stroke="#AD9183" stroke-width="4" stroke-linejoin="bevel" stroke-miterlimit="10" d="M311.375,385.859
					c46.563-1.299,83.916-17.951,83.916-17.951"/>
				<path fill="none" stroke="#AD9183" stroke-width="4" stroke-linejoin="bevel" stroke-miterlimit="10" d="M311.375,404.058
					c46.563-1.298,83.916-16.95,83.916-16.95"/>
				<path fill="none" stroke="#AD9183" stroke-width="4" stroke-linejoin="bevel" stroke-miterlimit="10" d="M311.375,422.257
					c46.563-1.299,83.916-15.95,83.916-15.95"/>
				<path fill="none" stroke="#AD9183" stroke-width="4" stroke-linejoin="bevel" stroke-miterlimit="10" d="M311.375,440.455
					c46.563-1.298,83.916-14.949,83.916-14.949"/>
				<path fill="none" stroke="#AD9183" stroke-width="4" stroke-linejoin="bevel" stroke-miterlimit="10" d="M311.375,458.655
					c46.563-1.3,83.916-12.95,83.916-12.95"/>
				<path fill="none" stroke="#AD9183" stroke-width="4" stroke-linejoin="bevel" stroke-miterlimit="10" d="M311.375,476.854
					c46.563-1.3,83.916-11.951,83.916-11.951"/>
				<path fill="none" stroke="#AD9183" stroke-width="4" stroke-linejoin="bevel" stroke-miterlimit="10" d="M311.375,495.054
					c46.563-1.301,83.916-10.951,83.916-10.951"/>
				<path fill="none" stroke="#AD9183" stroke-width="4" stroke-linejoin="bevel" stroke-miterlimit="10" d="M311.375,513.251
					c46.563-1.299,83.916-10.951,83.916-10.951"/>
				<path fill="none" stroke="#AD9183" stroke-width="4" stroke-linejoin="bevel" stroke-miterlimit="10" d="M311.375,531.45
					c46.563-1.301,83.916-9.951,83.916-9.951"/>
				<path fill="none" stroke="#AD9183" stroke-width="4" stroke-linejoin="bevel" stroke-miterlimit="10" d="M311.375,549.648
					c46.563-1.3,83.916-8.951,83.916-8.951"/>
				<path fill="none" stroke="#AD9183" stroke-width="4" stroke-linejoin="bevel" stroke-miterlimit="10" d="M311.375,567.848
					c46.563-1.301,83.916-6.951,83.916-6.951"/>
				<path fill="none" stroke="#AD9183" stroke-width="4" stroke-linejoin="bevel" stroke-miterlimit="10" d="M311.375,586.045
					c46.563-1.299,83.916-5.951,83.916-5.951"/>
				<path fill="none" stroke="#AD9183" stroke-width="4" stroke-linejoin="bevel" stroke-miterlimit="10" d="M311.375,604.244
					c46.563-1.301,83.916-4.951,83.916-4.951"/>
				<path fill="none" stroke="#AD9183" stroke-width="4" stroke-linejoin="bevel" stroke-miterlimit="10" d="M311.375,622.442
					c46.563-1.3,83.916-3.951,83.916-3.951"/>
				<path fill="none" stroke="#AD9183" stroke-width="4" stroke-linejoin="bevel" stroke-miterlimit="10" d="M311.375,640.641
					c46.563-1.3,83.916-2.95,83.916-2.95"/>
				
					<line fill="none" stroke="#AD9183" stroke-width="4" stroke-linejoin="bevel" stroke-miterlimit="10" x1="395.292" y1="717.85" x2="311.375" y2="713.8"/>
				
					<line fill="none" stroke="#AD9183" stroke-width="4" stroke-linejoin="bevel" stroke-miterlimit="10" x1="395.292" y1="697.44" x2="311.375" y2="695.391"/>
				
					<line fill="none" stroke="#AD9183" stroke-width="4" stroke-linejoin="bevel" stroke-miterlimit="10" x1="395.292" y1="678.087" x2="311.375" y2="677.037"/>
				
					<line fill="none" stroke="#AD9183" stroke-width="4" stroke-linejoin="bevel" stroke-miterlimit="10" x1="395.292" y1="657.888" x2="311.375" y2="658.839"/>
			</g>
			<path fill="none" stroke="#373636" stroke-width="4" stroke-linejoin="bevel" stroke-miterlimit="10" d="M311.375,732.07V259.275
				c46.563-1.279,83.916-24.561,83.916-24.561V738.21L311.375,732.07z"/>
		</g>
		<g>
			<g>
				<defs>
					<path id="SVGID_3_" d="M539.586,732.07V259.275c-46.563-1.279-83.916-24.561-83.916-24.561V738.21L539.586,732.07z"/>
				</defs>
				<use xlink:href="#SVGID_3_"  overflow="visible" fill="#E3E3E3"/>
				<clipPath id="SVGID_4_">
					<use xlink:href="#SVGID_3_"  overflow="visible"/>
				</clipPath>
				<g clip-path="url(#SVGID_4_)">
					<rect x="528.049" y="222.435" fill="#BFD1E2" width="11.537" height="515.775"/>
					<rect x="509.465" y="222.435" fill="#BFD1E2" width="10.621" height="515.775"/>
					<rect x="493.346" y="222.435" fill="#BFD1E2" width="8.789" height="515.775"/>
					<rect x="480.15" y="222.435" fill="#BFD1E2" width="7.131" height="515.775"/>
					<rect x="470.332" y="222.435" fill="#BFD1E2" width="4.898" height="515.775"/>
					<rect x="463.529" y="222.435" fill="#BFD1E2" width="3.422" height="515.775"/>
					<rect x="459.098" y="222.435" fill="#BFD1E2" width="2.07" height="515.775"/>
					<rect x="456.449" y="222.435" fill="#BFD1E2" width="1.221" height="515.775"/>
				</g>
			</g>
			<linearGradient id="ombre_1_" gradientUnits="userSpaceOnUse" x1="459.623" y1="488.002" x2="545.1755" y2="477.6277">
				<stop  offset="0.25" style="stop-color:#000000;stop-opacity:0.55"/>
				<stop  offset="0.9" style="stop-color:#E3E3E3;stop-opacity:0"/>
			</linearGradient>
			<path id="ombre" opacity="0.5" fill="url(#ombre_1_)" d="M539.586,732.07V259.275c-46.563-1.279-83.916-24.561-83.916-24.561
				V738.21L539.586,732.07z"/>
			<g>
				<path fill="none" stroke="#715F55" stroke-width="4" stroke-linejoin="bevel" stroke-miterlimit="10" d="M539.586,276.665
					c-46.563-1.299-83.916-23.95-83.916-23.95"/>
				<path fill="none" stroke="#715F55" stroke-width="4" stroke-linejoin="bevel" stroke-miterlimit="10" d="M539.586,294.864
					c-46.563-1.298-83.916-21.95-83.916-21.95"/>
				<path fill="none" stroke="#715F55" stroke-width="4" stroke-linejoin="bevel" stroke-miterlimit="10" d="M539.586,313.063
					c-46.563-1.299-83.916-20.95-83.916-20.95"/>
				<path fill="none" stroke="#715F55" stroke-width="4" stroke-linejoin="bevel" stroke-miterlimit="10" d="M539.586,331.262
					c-46.563-1.298-83.916-19.95-83.916-19.95"/>
				<path fill="none" stroke="#715F55" stroke-width="4" stroke-linejoin="bevel" stroke-miterlimit="10" d="M539.586,349.461
					c-46.563-1.299-83.916-18.95-83.916-18.95"/>
				<path fill="none" stroke="#715F55" stroke-width="4" stroke-linejoin="bevel" stroke-miterlimit="10" d="M539.586,367.66
					c-46.563-1.298-83.916-17.95-83.916-17.95"/>
				<path fill="none" stroke="#715F55" stroke-width="4" stroke-linejoin="bevel" stroke-miterlimit="10" d="M539.586,385.859
					c-46.563-1.299-83.916-17.951-83.916-17.951"/>
				<path fill="none" stroke="#715F55" stroke-width="4" stroke-linejoin="bevel" stroke-miterlimit="10" d="M539.586,404.058
					c-46.563-1.298-83.916-16.95-83.916-16.95"/>
				<path fill="none" stroke="#715F55" stroke-width="4" stroke-linejoin="bevel" stroke-miterlimit="10" d="M539.586,422.257
					c-46.563-1.299-83.916-15.95-83.916-15.95"/>
				<path fill="none" stroke="#715F55" stroke-width="4" stroke-linejoin="bevel" stroke-miterlimit="10" d="M539.586,440.455
					c-46.563-1.298-83.916-14.949-83.916-14.949"/>
				<path fill="none" stroke="#715F55" stroke-width="4" stroke-linejoin="bevel" stroke-miterlimit="10" d="M539.586,458.655
					c-46.563-1.3-83.916-12.95-83.916-12.95"/>
				<path fill="none" stroke="#715F55" stroke-width="4" stroke-linejoin="bevel" stroke-miterlimit="10" d="M539.586,476.854
					c-46.563-1.3-83.916-11.951-83.916-11.951"/>
				<path fill="none" stroke="#715F55" stroke-width="4" stroke-linejoin="bevel" stroke-miterlimit="10" d="M539.586,495.054
					c-46.563-1.301-83.916-10.951-83.916-10.951"/>
				<path fill="none" stroke="#715F55" stroke-width="4" stroke-linejoin="bevel" stroke-miterlimit="10" d="M539.586,513.251
					c-46.563-1.299-83.916-10.951-83.916-10.951"/>
				<path fill="none" stroke="#715F55" stroke-width="4" stroke-linejoin="bevel" stroke-miterlimit="10" d="M539.586,531.45
					c-46.563-1.301-83.916-9.951-83.916-9.951"/>
				<path fill="none" stroke="#715F55" stroke-width="4" stroke-linejoin="bevel" stroke-miterlimit="10" d="M539.586,549.648
					c-46.563-1.3-83.916-8.951-83.916-8.951"/>
				<path fill="none" stroke="#715F55" stroke-width="4" stroke-linejoin="bevel" stroke-miterlimit="10" d="M539.586,567.848
					c-46.563-1.301-83.916-6.951-83.916-6.951"/>
				<path fill="none" stroke="#715F55" stroke-width="4" stroke-linejoin="bevel" stroke-miterlimit="10" d="M539.586,586.045
					c-46.563-1.299-83.916-5.951-83.916-5.951"/>
				<path fill="none" stroke="#715F55" stroke-width="4" stroke-linejoin="bevel" stroke-miterlimit="10" d="M539.586,604.244
					c-46.563-1.301-83.916-4.951-83.916-4.951"/>
				<path fill="none" stroke="#715F55" stroke-width="4" stroke-linejoin="bevel" stroke-miterlimit="10" d="M539.586,622.442
					c-46.563-1.3-83.916-3.951-83.916-3.951"/>
				<path fill="none" stroke="#715F55" stroke-width="4" stroke-linejoin="bevel" stroke-miterlimit="10" d="M539.586,640.641
					c-46.563-1.3-83.916-2.95-83.916-2.95"/>
				
					<line fill="none" stroke="#715F55" stroke-width="4" stroke-linejoin="bevel" stroke-miterlimit="10" x1="455.67" y1="717.85" x2="539.586" y2="713.8"/>
				
					<line fill="none" stroke="#715F55" stroke-width="4" stroke-linejoin="bevel" stroke-miterlimit="10" x1="455.67" y1="697.44" x2="539.586" y2="695.391"/>
				
					<line fill="none" stroke="#715F55" stroke-width="4" stroke-linejoin="bevel" stroke-miterlimit="10" x1="455.67" y1="678.087" x2="539.586" y2="677.037"/>
				
					<line fill="none" stroke="#715F55" stroke-width="4" stroke-linejoin="bevel" stroke-miterlimit="10" x1="455.67" y1="657.888" x2="539.586" y2="658.839"/>
			</g>
			<path fill="none" stroke="#373636" stroke-width="4" stroke-linejoin="bevel" stroke-miterlimit="10" d="M539.586,732.07V259.275
				c-46.563-1.279-83.916-24.561-83.916-24.561V738.21L539.586,732.07z"/>
		</g>
	</g>
</g>
<g>
</g>
<g>
</g>
<g>
</g>
<g>
</g>
<g>
</g>
<g>
</g>
</svg>
