<?xml version="1.0" encoding="utf-8"?>
<!-- Generator: Adobe Illustrator 16.0.0, SVG Export Plug-In . SVG Version: 6.00 Build 0)  -->
<!DOCTYPE svg PUBLIC "-//W3C//DTD SVG 1.1//EN" "http://www.w3.org/Graphics/SVG/1.1/DTD/svg11.dtd">
<svg version="1.1" id="Layer_1" xmlns="http://www.w3.org/2000/svg" xmlns:xlink="http://www.w3.org/1999/xlink" x="0px" y="0px"
	 width="850.39px" height="850.39px" viewBox="0 0 850.39 850.39" enable-background="new 0 0 850.39 850.39" xml:space="preserve">
<g>
	<polygon fill="#E7C5A7" stroke="#373636" stroke-width="4" stroke-linejoin="bevel" stroke-miterlimit="10" points="
		501.678,383.948 501.404,383.948 425.662,293.987 349.921,383.948 349.645,383.948 349.645,493.983 361.732,493.983 
		361.732,569.459 489.592,569.459 489.592,493.983 501.678,493.983 	"/>
	<g>
		
			<rect x="377.014" y="436.637" fill="#BFD1E2" stroke="#373636" stroke-width="4" stroke-linejoin="bevel" stroke-miterlimit="10" width="24.324" height="35.986"/>
		
			<line fill="none" stroke="#373636" stroke-width="2" stroke-linejoin="bevel" stroke-miterlimit="10" x1="389.176" y1="436.637" x2="389.176" y2="472.623"/>
	</g>
	<g>
		
			<rect x="401.338" y="436.637" fill="#BFD1E2" stroke="#373636" stroke-width="4" stroke-linejoin="bevel" stroke-miterlimit="10" width="24.322" height="35.986"/>
		
			<line fill="none" stroke="#373636" stroke-width="2" stroke-linejoin="bevel" stroke-miterlimit="10" x1="413.5" y1="436.637" x2="413.5" y2="472.623"/>
	</g>
	<g>
		
			<rect x="425.661" y="436.637" fill="#BFD1E2" stroke="#373636" stroke-width="4" stroke-linejoin="bevel" stroke-miterlimit="10" width="24.324" height="35.986"/>
		
			<line fill="none" stroke="#373636" stroke-width="2" stroke-linejoin="bevel" stroke-miterlimit="10" x1="437.822" y1="436.637" x2="437.822" y2="472.623"/>
	</g>
	<g>
		
			<rect x="449.984" y="436.637" fill="#BFD1E2" stroke="#373636" stroke-width="4" stroke-linejoin="bevel" stroke-miterlimit="10" width="24.322" height="35.986"/>
		
			<line fill="none" stroke="#373636" stroke-width="2" stroke-linejoin="bevel" stroke-miterlimit="10" x1="462.146" y1="436.637" x2="462.146" y2="472.623"/>
	</g>
	<g>
		
			<rect x="365.353" y="384.174" fill="#BFD1E2" stroke="#373636" stroke-width="4" stroke-linejoin="bevel" stroke-miterlimit="10" width="19.911" height="29.459"/>
		
			<line fill="none" stroke="#373636" stroke-width="2" stroke-linejoin="bevel" stroke-miterlimit="10" x1="375.308" y1="384.174" x2="375.308" y2="413.633"/>
	</g>
	<g>
		
			<rect x="398.78" y="384.174" fill="#BFD1E2" stroke="#373636" stroke-width="4" stroke-linejoin="bevel" stroke-miterlimit="10" width="19.912" height="29.459"/>
		
			<line fill="none" stroke="#373636" stroke-width="2" stroke-linejoin="bevel" stroke-miterlimit="10" x1="408.735" y1="384.174" x2="408.735" y2="413.633"/>
	</g>
	<g>
		
			<rect x="432.205" y="384.174" fill="#BFD1E2" stroke="#373636" stroke-width="4" stroke-linejoin="bevel" stroke-miterlimit="10" width="19.912" height="29.459"/>
		
			<line fill="none" stroke="#373636" stroke-width="2" stroke-linejoin="bevel" stroke-miterlimit="10" x1="442.162" y1="384.174" x2="442.162" y2="413.633"/>
	</g>
	<g>
		
			<rect x="465.633" y="384.174" fill="#BFD1E2" stroke="#373636" stroke-width="4" stroke-linejoin="bevel" stroke-miterlimit="10" width="19.912" height="29.459"/>
		
			<line fill="none" stroke="#373636" stroke-width="2" stroke-linejoin="bevel" stroke-miterlimit="10" x1="475.59" y1="384.174" x2="475.59" y2="413.633"/>
	</g>
	
		<line fill="none" stroke="#373636" stroke-width="4" stroke-linejoin="bevel" stroke-miterlimit="10" x1="361.732" y1="494.195" x2="489.592" y2="494.195"/>
	
		<line fill="none" stroke="#373636" stroke-width="4" stroke-linejoin="bevel" stroke-miterlimit="10" x1="349.645" y1="472.623" x2="501.678" y2="472.623"/>
	
		<rect x="349.645" y="425.986" fill="#826C5C" stroke="#373636" stroke-width="4" stroke-linejoin="bevel" stroke-miterlimit="10" width="152.033" height="10.65"/>
	
		<line fill="none" stroke="#373636" stroke-width="4" stroke-linejoin="bevel" stroke-miterlimit="10" x1="349.921" y1="384.16" x2="501.678" y2="384.16"/>
	
		<line fill="none" stroke="#373636" stroke-width="4" stroke-linejoin="bevel" stroke-miterlimit="10" x1="349.645" y1="413.633" x2="501.678" y2="413.633"/>
	<g>
		
			<line fill="none" stroke="#373636" stroke-width="2" stroke-linejoin="bevel" stroke-miterlimit="10" x1="377.014" y1="472.623" x2="377.014" y2="494.195"/>
		
			<line fill="none" stroke="#373636" stroke-width="2" stroke-linejoin="bevel" stroke-miterlimit="10" x1="377.014" y1="472.623" x2="370.299" y2="494.195"/>
		
			<line fill="none" stroke="#373636" stroke-width="2" stroke-linejoin="bevel" stroke-miterlimit="10" x1="377.014" y1="472.623" x2="383.73" y2="494.195"/>
	</g>
	<g>
		
			<line fill="none" stroke="#373636" stroke-width="2" stroke-linejoin="bevel" stroke-miterlimit="10" x1="401.338" y1="472.623" x2="401.338" y2="494.195"/>
		
			<line fill="none" stroke="#373636" stroke-width="2" stroke-linejoin="bevel" stroke-miterlimit="10" x1="401.338" y1="472.623" x2="394.623" y2="494.195"/>
		
			<line fill="none" stroke="#373636" stroke-width="2" stroke-linejoin="bevel" stroke-miterlimit="10" x1="401.337" y1="472.623" x2="408.052" y2="494.195"/>
	</g>
	<g>
		
			<line fill="none" stroke="#373636" stroke-width="2" stroke-linejoin="bevel" stroke-miterlimit="10" x1="425.661" y1="472.623" x2="425.661" y2="494.195"/>
		
			<line fill="none" stroke="#373636" stroke-width="2" stroke-linejoin="bevel" stroke-miterlimit="10" x1="425.661" y1="472.623" x2="418.946" y2="494.195"/>
		
			<line fill="none" stroke="#373636" stroke-width="2" stroke-linejoin="bevel" stroke-miterlimit="10" x1="425.661" y1="472.623" x2="432.377" y2="494.195"/>
	</g>
	<g>
		
			<line fill="none" stroke="#373636" stroke-width="2" stroke-linejoin="bevel" stroke-miterlimit="10" x1="449.986" y1="472.623" x2="449.986" y2="494.195"/>
		
			<line fill="none" stroke="#373636" stroke-width="2" stroke-linejoin="bevel" stroke-miterlimit="10" x1="449.986" y1="472.623" x2="443.27" y2="494.195"/>
		
			<line fill="none" stroke="#373636" stroke-width="2" stroke-linejoin="bevel" stroke-miterlimit="10" x1="449.984" y1="472.623" x2="456.699" y2="494.195"/>
	</g>
	<g>
		
			<line fill="none" stroke="#373636" stroke-width="2" stroke-linejoin="bevel" stroke-miterlimit="10" x1="474.309" y1="472.623" x2="474.309" y2="494.195"/>
		
			<line fill="none" stroke="#373636" stroke-width="2" stroke-linejoin="bevel" stroke-miterlimit="10" x1="474.309" y1="472.623" x2="467.592" y2="494.195"/>
		
			<line fill="none" stroke="#373636" stroke-width="2" stroke-linejoin="bevel" stroke-miterlimit="10" x1="474.307" y1="472.623" x2="481.023" y2="494.195"/>
	</g>
	<g>
		
			<line fill="none" stroke="#373636" stroke-width="2" stroke-linejoin="bevel" stroke-miterlimit="10" x1="391.886" y1="413.633" x2="391.886" y2="425.986"/>
		
			<line fill="none" stroke="#373636" stroke-width="2" stroke-linejoin="bevel" stroke-miterlimit="10" x1="358.485" y1="413.633" x2="358.485" y2="425.986"/>
		
			<line fill="none" stroke="#373636" stroke-width="2" stroke-linejoin="bevel" stroke-miterlimit="10" x1="385.264" y1="413.633" x2="365.353" y2="425.986"/>
		
			<line fill="none" stroke="#373636" stroke-width="2" stroke-linejoin="bevel" stroke-miterlimit="10" x1="365.353" y1="413.633" x2="385.264" y2="425.986"/>
	</g>
	<g>
		
			<line fill="none" stroke="#373636" stroke-width="2" stroke-linejoin="bevel" stroke-miterlimit="10" x1="425.313" y1="413.633" x2="425.313" y2="425.986"/>
		
			<line fill="none" stroke="#373636" stroke-width="2" stroke-linejoin="bevel" stroke-miterlimit="10" x1="418.692" y1="413.633" x2="398.78" y2="425.986"/>
		
			<line fill="none" stroke="#373636" stroke-width="2" stroke-linejoin="bevel" stroke-miterlimit="10" x1="398.78" y1="413.633" x2="418.692" y2="425.986"/>
	</g>
	<g>
		
			<line fill="none" stroke="#373636" stroke-width="2" stroke-linejoin="bevel" stroke-miterlimit="10" x1="458.74" y1="413.633" x2="458.74" y2="425.986"/>
		
			<line fill="none" stroke="#373636" stroke-width="2" stroke-linejoin="bevel" stroke-miterlimit="10" x1="452.117" y1="413.633" x2="432.205" y2="425.986"/>
		
			<line fill="none" stroke="#373636" stroke-width="2" stroke-linejoin="bevel" stroke-miterlimit="10" x1="432.205" y1="413.633" x2="452.117" y2="425.986"/>
	</g>
	<g>
		
			<line fill="none" stroke="#373636" stroke-width="2" stroke-linejoin="bevel" stroke-miterlimit="10" x1="492.166" y1="413.633" x2="492.166" y2="425.986"/>
		
			<line fill="none" stroke="#373636" stroke-width="2" stroke-linejoin="bevel" stroke-miterlimit="10" x1="485.545" y1="413.633" x2="465.633" y2="425.986"/>
		
			<line fill="none" stroke="#373636" stroke-width="2" stroke-linejoin="bevel" stroke-miterlimit="10" x1="465.633" y1="413.633" x2="485.545" y2="425.986"/>
	</g>
	
		<line fill="none" stroke="#373636" stroke-width="2" stroke-linejoin="bevel" stroke-miterlimit="10" x1="370.299" y1="494.195" x2="361.732" y2="519.487"/>
	
		<line fill="none" stroke="#373636" stroke-width="2" stroke-linejoin="bevel" stroke-miterlimit="10" x1="481.023" y1="494.195" x2="489.592" y2="519.487"/>
	<g opacity="0.3">
		<polygon points="431.104,287.914 347.891,386.695 347.891,391.839 351.002,395.029 430.768,299.697 		"/>
		<rect x="351.387" y="385.905" width="151.949" height="5.47"/>
		<rect x="360.109" y="495.894" width="131" height="5.471"/>
		<polygon points="503.336,443.809 353.662,443.809 348,438.337 503.336,438.337 		"/>
	</g>
	<polygon fill="#826C5C" stroke="#373636" stroke-width="4" stroke-linejoin="bevel" stroke-miterlimit="10" points="
		511.982,384.16 501.678,384.16 425.326,294.255 349.645,384.16 339.342,384.16 425.661,282.472 	"/>
	<g>
		<path fill="#826C5C" stroke="#373636" stroke-width="4" stroke-linejoin="bevel" stroke-miterlimit="10" d="M398.926,529.909
			v39.763h53.472v-39.763C452.398,529.909,427.617,504.116,398.926,529.909z"/>
		
			<line fill="none" stroke="#373636" stroke-width="2" stroke-linejoin="bevel" stroke-miterlimit="10" x1="425.662" y1="518.626" x2="425.662" y2="569.672"/>
	</g>
	<g>
		<path fill="#BFD1E2" stroke="#373636" stroke-width="4" stroke-linejoin="bevel" stroke-miterlimit="10" d="M398.79,356.791
			v14.369h19.644v-14.369C418.433,356.791,409.355,351.203,398.79,356.791z"/>
		
			<line fill="none" stroke="#373636" stroke-width="2" stroke-linejoin="bevel" stroke-miterlimit="10" x1="408.612" y1="354.311" x2="408.612" y2="371.16"/>
	</g>
	<g>
		<path fill="#BFD1E2" stroke="#373636" stroke-width="4" stroke-linejoin="bevel" stroke-miterlimit="10" d="M432.217,356.791
			v14.369h19.645v-14.369C451.861,356.791,442.781,351.203,432.217,356.791z"/>
		
			<line fill="none" stroke="#373636" stroke-width="2" stroke-linejoin="bevel" stroke-miterlimit="10" x1="442.039" y1="354.311" x2="442.039" y2="371.16"/>
	</g>
	<g>
		
			<rect x="414.418" y="326.549" fill="#BFD1E2" stroke="#373636" stroke-width="4" stroke-linejoin="bevel" stroke-miterlimit="10" width="10.907" height="11.696"/>
		
			<rect x="425.326" y="326.549" fill="#BFD1E2" stroke="#373636" stroke-width="4" stroke-linejoin="bevel" stroke-miterlimit="10" width="10.905" height="11.696"/>
	</g>
	
		<line fill="none" stroke="#373636" stroke-width="2" stroke-linejoin="bevel" stroke-miterlimit="10" x1="388.782" y1="339.092" x2="461.869" y2="339.092"/>
	
		<line fill="none" stroke="#373636" stroke-width="2" stroke-linejoin="bevel" stroke-miterlimit="10" x1="359.345" y1="372.012" x2="491.305" y2="372.012"/>
	
		<line fill="none" stroke="#373636" stroke-width="2" stroke-linejoin="bevel" stroke-miterlimit="10" x1="425.326" y1="294.255" x2="425.326" y2="384.16"/>
</g>
<g>
</g>
<g>
</g>
<g>
</g>
<g>
</g>
<g>
</g>
<g>
</g>
</svg>
