<?xml version="1.0" encoding="utf-8"?>
<!-- Generator: Adobe Illustrator 16.0.0, SVG Export Plug-In . SVG Version: 6.00 Build 0)  -->
<!DOCTYPE svg PUBLIC "-//W3C//DTD SVG 1.1//EN" "http://www.w3.org/Graphics/SVG/1.1/DTD/svg11.dtd">
<svg version="1.1" id="Layer_1" xmlns="http://www.w3.org/2000/svg" xmlns:xlink="http://www.w3.org/1999/xlink" x="0px" y="0px"
	 width="850.39px" height="850.39px" viewBox="0 0 850.39 850.39" enable-background="new 0 0 850.39 850.39" xml:space="preserve">
<g>
	<polygon fill="#FCFAE1" stroke="#373636" stroke-width="4" stroke-linejoin="bevel" stroke-miterlimit="10" points="
		349.783,418.271 341.424,418.271 426.265,318.9 466.805,366.382 466.805,342.936 475.998,342.936 475.998,377.151 511.105,418.271 
		502.746,418.271 502.746,475.244 493.553,475.244 493.553,532.672 358.978,532.672 358.978,475.244 349.783,475.244 	"/>
	
		<line fill="none" stroke="#373636" stroke-width="4" stroke-linejoin="bevel" stroke-miterlimit="10" x1="358.978" y1="475.244" x2="493.553" y2="475.244"/>
	
		<line fill="none" stroke="#373636" stroke-width="4" stroke-linejoin="bevel" stroke-miterlimit="10" x1="502.746" y1="418.31" x2="349.783" y2="418.31"/>
	<g>
		
			<rect x="356.049" y="422.251" fill="#BFD1E2" stroke="#373636" stroke-width="4" stroke-linejoin="bevel" stroke-miterlimit="10" width="16.544" height="24.478"/>
		
			<line fill="none" stroke="#373636" stroke-width="2" stroke-linejoin="bevel" stroke-miterlimit="10" x1="364.322" y1="422.251" x2="364.322" y2="446.729"/>
	</g>
	<g>
		
			<rect x="372.594" y="422.251" fill="#BFD1E2" stroke="#373636" stroke-width="4" stroke-linejoin="bevel" stroke-miterlimit="10" width="16.545" height="24.478"/>
		
			<line fill="none" stroke="#373636" stroke-width="2" stroke-linejoin="bevel" stroke-miterlimit="10" x1="380.866" y1="422.251" x2="380.866" y2="446.729"/>
	</g>
	<g>
		
			<rect x="389.139" y="422.251" fill="#BFD1E2" stroke="#373636" stroke-width="4" stroke-linejoin="bevel" stroke-miterlimit="10" width="16.544" height="24.478"/>
		
			<line fill="none" stroke="#373636" stroke-width="2" stroke-linejoin="bevel" stroke-miterlimit="10" x1="397.411" y1="422.251" x2="397.411" y2="446.729"/>
	</g>
	<g>
		
			<rect x="398.005" y="383.766" fill="#BFD1E2" stroke="#373636" stroke-width="4" stroke-linejoin="bevel" stroke-miterlimit="10" width="16.544" height="20.805"/>
		
			<line fill="none" stroke="#373636" stroke-width="2" stroke-linejoin="bevel" stroke-miterlimit="10" x1="406.278" y1="383.766" x2="406.278" y2="404.57"/>
	</g>
	<g>
		
			<rect x="437.709" y="383.766" fill="#BFD1E2" stroke="#373636" stroke-width="4" stroke-linejoin="bevel" stroke-miterlimit="10" width="16.545" height="20.805"/>
		
			<line fill="none" stroke="#373636" stroke-width="2" stroke-linejoin="bevel" stroke-miterlimit="10" x1="445.981" y1="383.766" x2="445.981" y2="404.57"/>
	</g>
	<g>
		
			<rect x="417.992" y="351.178" fill="#BFD1E2" stroke="#373636" stroke-width="4" stroke-linejoin="bevel" stroke-miterlimit="10" width="16.545" height="20.804"/>
		
			<line fill="none" stroke="#373636" stroke-width="2" stroke-linejoin="bevel" stroke-miterlimit="10" x1="426.265" y1="351.178" x2="426.265" y2="371.981"/>
	</g>
	<g>
		
			<rect x="463.971" y="422.251" fill="#BFD1E2" stroke="#373636" stroke-width="4" stroke-linejoin="bevel" stroke-miterlimit="10" width="16.544" height="24.478"/>
		
			<line fill="none" stroke="#373636" stroke-width="2" stroke-linejoin="bevel" stroke-miterlimit="10" x1="472.242" y1="422.251" x2="472.242" y2="446.729"/>
	</g>
	<g>
		
			<rect x="480.515" y="422.251" fill="#BFD1E2" stroke="#373636" stroke-width="4" stroke-linejoin="bevel" stroke-miterlimit="10" width="16.544" height="24.478"/>
		
			<line fill="none" stroke="#373636" stroke-width="2" stroke-linejoin="bevel" stroke-miterlimit="10" x1="488.787" y1="422.251" x2="488.787" y2="446.729"/>
	</g>
	<g>
		<ellipse fill="#E03F57" cx="380.866" cy="447.619" rx="24.817" ry="4.646"/>
		<ellipse fill="#E03F57" cx="480.515" cy="447.619" rx="16.567" ry="4.646"/>
		
			<line fill="none" stroke="#52B375" stroke-width="4" stroke-miterlimit="10" x1="356.049" y1="450.353" x2="405.683" y2="450.353"/>
		
			<line fill="none" stroke="#52B375" stroke-width="4" stroke-miterlimit="10" x1="463.971" y1="450.353" x2="497.059" y2="450.353"/>
	</g>
	
		<line fill="none" stroke="#373636" stroke-width="4" stroke-linejoin="bevel" stroke-miterlimit="10" x1="349.783" y1="452.983" x2="502.746" y2="452.983"/>
	
		<line fill="none" stroke="#373636" stroke-width="4" stroke-linejoin="bevel" stroke-miterlimit="10" x1="435.283" y1="418.31" x2="435.283" y2="475.244"/>
	
		<line fill="none" stroke="#373636" stroke-width="4" stroke-linejoin="bevel" stroke-miterlimit="10" x1="405.683" y1="431.552" x2="463.971" y2="431.552"/>
	
		<line fill="none" stroke="#373636" stroke-width="2" stroke-linejoin="bevel" stroke-miterlimit="10" x1="435.283" y1="431.552" x2="422.308" y2="418.576"/>
	
		<line fill="none" stroke="#373636" stroke-width="2" stroke-linejoin="bevel" stroke-miterlimit="10" x1="435.283" y1="431.552" x2="448.716" y2="418.119"/>
	
		<line fill="none" stroke="#373636" stroke-width="2" stroke-linejoin="bevel" stroke-miterlimit="10" x1="435.283" y1="431.552" x2="408.761" y2="475.244"/>
	
		<line fill="none" stroke="#373636" stroke-width="2" stroke-linejoin="bevel" stroke-miterlimit="10" x1="435.283" y1="431.552" x2="462.494" y2="475.244"/>
	
		<line fill="none" stroke="#373636" stroke-width="4" stroke-linejoin="bevel" stroke-miterlimit="10" x1="380.866" y1="452.266" x2="380.866" y2="475.244"/>
	
		<line fill="none" stroke="#373636" stroke-width="4" stroke-linejoin="bevel" stroke-miterlimit="10" x1="480.515" y1="452.266" x2="480.515" y2="475.244"/>
	
		<line fill="none" stroke="#373636" stroke-width="2" stroke-linejoin="bevel" stroke-miterlimit="10" x1="405.683" y1="452.983" x2="389.139" y2="475.244"/>
	
		<line fill="none" stroke="#373636" stroke-width="2" stroke-linejoin="bevel" stroke-miterlimit="10" x1="356.049" y1="452.983" x2="372.594" y2="475.244"/>
	
		<line fill="none" stroke="#373636" stroke-width="2" stroke-linejoin="bevel" stroke-miterlimit="10" x1="463.947" y1="452.983" x2="472.242" y2="475.244"/>
	
		<line fill="none" stroke="#373636" stroke-width="2" stroke-linejoin="bevel" stroke-miterlimit="10" x1="497.082" y1="452.983" x2="488.787" y2="475.244"/>
	
		<line fill="none" stroke="#373636" stroke-width="2" stroke-linejoin="bevel" stroke-miterlimit="10" x1="372.594" y1="475.244" x2="358.978" y2="502.891"/>
	
		<line fill="none" stroke="#373636" stroke-width="2" stroke-linejoin="bevel" stroke-miterlimit="10" x1="480.515" y1="475.244" x2="493.553" y2="502.891"/>
	
		<line fill="none" stroke="#373636" stroke-width="4" stroke-linejoin="bevel" stroke-miterlimit="10" x1="353.121" y1="404.57" x2="499.332" y2="404.57"/>
	
		<line fill="none" stroke="#373636" stroke-width="4" stroke-linejoin="bevel" stroke-miterlimit="10" x1="370.883" y1="383.766" x2="481.102" y2="383.766"/>
	<g opacity="0.3">
		<polygon points="430.68,323.315 348.482,419.649 348.482,423.821 351.008,426.41 430.408,332.875 		"/>
		<rect x="348.482" y="419.649" width="155.575" height="4.438"/>
		<rect x="357.61" y="476.598" width="137.224" height="4.438"/>
		<polygon points="410.974,456.819 361.34,456.819 356.211,451.529 405.846,451.529 		"/>
		<polygon points="502.548,457.018 469.436,457.018 464.154,451.529 497.267,451.529 		"/>
	</g>
	<polygon fill="#826C5C" stroke="#373636" stroke-width="4" stroke-linejoin="bevel" stroke-miterlimit="10" points="
		511.105,418.271 502.746,418.271 425.993,328.46 349.783,418.271 341.424,418.271 426.265,318.9 	"/>
	<g>
		<path fill="#BFD1E2" stroke="#373636" stroke-width="4" stroke-linejoin="bevel" stroke-miterlimit="10" d="M439.568,495.919
			v26.986h36.896v-26.986C476.465,495.919,459.412,485.419,439.568,495.919z"/>
		
			<line fill="none" stroke="#373636" stroke-width="2" stroke-linejoin="bevel" stroke-miterlimit="10" x1="458.017" y1="491.256" x2="458.017" y2="522.905"/>
		
			<line fill="none" stroke="#373636" stroke-width="2" stroke-linejoin="bevel" stroke-miterlimit="10" x1="439.568" y1="504.575" x2="476.465" y2="504.575"/>
	</g>
	<g>
		<path fill="#826C5C" stroke="#373636" stroke-width="4" stroke-linejoin="bevel" stroke-miterlimit="10" d="M380.866,494.306
			v38.366h24.14v-38.366C405.006,494.306,393.85,487.436,380.866,494.306z"/>
		
			<line fill="none" stroke="#373636" stroke-width="2" stroke-linejoin="bevel" stroke-miterlimit="10" x1="392.937" y1="491.257" x2="392.937" y2="532.672"/>
		
			<line fill="none" stroke="#373636" stroke-width="2" stroke-linejoin="bevel" stroke-miterlimit="10" x1="380.866" y1="504.575" x2="405.006" y2="504.575"/>
	</g>
	
		<line fill="none" stroke="#373636" stroke-width="4" stroke-linejoin="bevel" stroke-miterlimit="10" x1="406.716" y1="351.178" x2="445.407" y2="351.178"/>
	
		<line fill="none" stroke="#373636" stroke-width="4" stroke-linejoin="bevel" stroke-miterlimit="10" x1="389.139" y1="371.981" x2="463.187" y2="371.981"/>
	<g>
		
			<line fill="none" stroke="#373636" stroke-width="2" stroke-linejoin="bevel" stroke-miterlimit="10" x1="426.265" y1="371.981" x2="426.265" y2="383.766"/>
		
			<line fill="none" stroke="#373636" stroke-width="2" stroke-linejoin="bevel" stroke-miterlimit="10" x1="426.265" y1="371.981" x2="414.515" y2="383.731"/>
		
			<line fill="none" stroke="#373636" stroke-width="2" stroke-linejoin="bevel" stroke-miterlimit="10" x1="426.265" y1="371.981" x2="438.35" y2="384.066"/>
		
			<line fill="none" stroke="#373636" stroke-width="2" stroke-linejoin="bevel" stroke-miterlimit="10" x1="454.086" y1="371.981" x2="454.086" y2="383.766"/>
		
			<line fill="none" stroke="#373636" stroke-width="2" stroke-linejoin="bevel" stroke-miterlimit="10" x1="454.086" y1="371.981" x2="442.336" y2="383.731"/>
		
			<line fill="none" stroke="#373636" stroke-width="2" stroke-linejoin="bevel" stroke-miterlimit="10" x1="454.086" y1="371.981" x2="466.172" y2="384.066"/>
		
			<line fill="none" stroke="#373636" stroke-width="2" stroke-linejoin="bevel" stroke-miterlimit="10" x1="397.837" y1="371.981" x2="397.837" y2="383.766"/>
		
			<line fill="none" stroke="#373636" stroke-width="2" stroke-linejoin="bevel" stroke-miterlimit="10" x1="397.837" y1="371.981" x2="386.088" y2="383.731"/>
		
			<line fill="none" stroke="#373636" stroke-width="2" stroke-linejoin="bevel" stroke-miterlimit="10" x1="397.837" y1="371.981" x2="409.923" y2="384.066"/>
	</g>
	<g>
		
			<line fill="none" stroke="#373636" stroke-width="2" stroke-linejoin="bevel" stroke-miterlimit="10" x1="435.289" y1="405.032" x2="435.289" y2="418.24"/>
		
			<line fill="none" stroke="#373636" stroke-width="2" stroke-linejoin="bevel" stroke-miterlimit="10" x1="435.289" y1="405.032" x2="422.12" y2="418.201"/>
		
			<line fill="none" stroke="#373636" stroke-width="2" stroke-linejoin="bevel" stroke-miterlimit="10" x1="435.289" y1="405.032" x2="448.833" y2="418.576"/>
		
			<line fill="none" stroke="#373636" stroke-width="2" stroke-linejoin="bevel" stroke-miterlimit="10" x1="480.326" y1="405.032" x2="480.326" y2="418.24"/>
		
			<line fill="none" stroke="#373636" stroke-width="2" stroke-linejoin="bevel" stroke-miterlimit="10" x1="480.326" y1="405.032" x2="467.158" y2="418.201"/>
		
			<line fill="none" stroke="#373636" stroke-width="2" stroke-linejoin="bevel" stroke-miterlimit="10" x1="480.326" y1="405.032" x2="493.871" y2="418.576"/>
		
			<line fill="none" stroke="#373636" stroke-width="2" stroke-linejoin="bevel" stroke-miterlimit="10" x1="380.678" y1="405.032" x2="380.678" y2="418.24"/>
		
			<line fill="none" stroke="#373636" stroke-width="2" stroke-linejoin="bevel" stroke-miterlimit="10" x1="380.678" y1="405.032" x2="367.509" y2="418.201"/>
		
			<line fill="none" stroke="#373636" stroke-width="2" stroke-linejoin="bevel" stroke-miterlimit="10" x1="380.678" y1="405.032" x2="394.223" y2="418.576"/>
	</g>
</g>
<g>
</g>
<g>
</g>
<g>
</g>
<g>
</g>
<g>
</g>
<g>
</g>
</svg>
